# xmcd
#
# Track frame offsets:
# 150
# 14664
# 29204
# 42697
# 56059
# 67643
# 81350
# 95529
# 111889
# 125373
# 140874
# 154514
# 169154
# 181954
#
# Disc length: 2625 seconds
#
#
# Revision: 1
# Processed by: cddbd v1.5.2PL0 Copyright (c) Steve Scherf et al.
# Submitted via: FreeRIP 2.951 
#
DISCID=c90a3f0e
DTITLE=MULHERES PERDIDAS - A 40º GRAUS
DYEAR=2006
DGENRE=FORRO
TTITLE0=APRENDI A VIVER
TTITLE1=MUNCA MAIS
TTITLE2=XUPETINHA
TTITLE3=SAFADAO
TTITLE4=O REI DO CABARE
TTITLE5=GATO E SAPATO
TTITLE6=40º GRAUS
TTITLE7=O SOL E O VAGA LUME
TTITLE8=SOCIEDADE NAO
TTITLE9=O TROCO
TTITLE10=NAO VA EMBORA
TTITLE11=DECISAO
TTITLE12=DOINDINHA POR FORRÓ
TTITLE13=A PRIMEIRA VISTA
EXTD=COLATINA A CIDADE DAS PUTAS
EXTT0=
EXTT1=
EXTT2=
EXTT3=
EXTT4=
EXTT5=
EXTT6=
EXTT7=
EXTT8=
EXTT9=
EXTT10=
EXTT11=
EXTT12=
EXTT13=
PLAYORDER=
